<?xml version="1.0" encoding="UTF-8"?>
<!DOCTYPE svg PUBLIC "-//W3C//DTD SVG 1.1//EN" "http://www.w3.org/Graphics/SVG/1.1/DTD/svg11.dtd">
<svg xmlns="http://www.w3.org/2000/svg" version="1.1" width="512px" height="512px" style="shape-rendering:geometricPrecision; text-rendering:geometricPrecision; image-rendering:optimizeQuality; fill-rule:evenodd; clip-rule:evenodd" xmlns:xlink="http://www.w3.org/1999/xlink">
<g><path style="opacity:0.99" fill="#000000" d="M 247.5,-0.5 C 252.833,-0.5 258.167,-0.5 263.5,-0.5C 276.842,1.495 289.176,6.32833 300.5,14C 361.833,62 423.167,110 484.5,158C 499.084,170.345 508.084,185.845 511.5,204.5C 511.5,306.833 511.5,409.167 511.5,511.5C 340.833,511.5 170.167,511.5 -0.5,511.5C -0.5,409.167 -0.5,306.833 -0.5,204.5C 2.91095,185.856 11.911,170.356 26.5,158C 89.0145,109.575 151.348,60.9081 213.5,12C 224.026,5.32796 235.359,1.16129 247.5,-0.5 Z M 252.5,64.5 C 254.527,64.3379 256.527,64.5045 258.5,65C 320.953,113.118 383.12,161.618 445,210.5C 446.494,289.418 446.994,368.418 446.5,447.5C 318.833,447.5 191.167,447.5 63.5,447.5C 63.0117,369.122 63.5117,290.789 65,212.5C 65.7845,210.714 66.9512,209.214 68.5,208C 129.733,159.921 191.066,112.088 252.5,64.5 Z"/></g>
</svg>
