<?xml version="1.0" encoding="UTF-8"?>
<!DOCTYPE svg PUBLIC "-//W3C//DTD SVG 1.1//EN" "http://www.w3.org/Graphics/SVG/1.1/DTD/svg11.dtd">
<svg xmlns="http://www.w3.org/2000/svg" version="1.1" width="512px" height="512px" style="shape-rendering:geometricPrecision; text-rendering:geometricPrecision; image-rendering:optimizeQuality; fill-rule:evenodd; clip-rule:evenodd" xmlns:xlink="http://www.w3.org/1999/xlink">
<g><path style="opacity:0.982" fill="#000000" d="M 239.5,-0.5 C 250.167,-0.5 260.833,-0.5 271.5,-0.5C 325.548,8.7041 361.382,39.3708 379,91.5C 391.901,144.451 378.401,189.285 338.5,226C 299.919,256.182 257.252,263.516 210.5,248C 151.218,221.969 123.718,176.469 128,111.5C 136.882,57.283 167.382,21.4497 219.5,4C 226.259,2.28494 232.925,0.784944 239.5,-0.5 Z M 254.5,63.5 C 286.017,65.667 306.851,81.667 317,111.5C 323.115,144.43 311.615,168.93 282.5,185C 248.081,197.638 220.581,188.805 200,158.5C 185.797,127.853 190.963,101.02 215.5,78C 227.15,69.2862 240.15,64.4529 254.5,63.5 Z"/></g>
<g><path style="opacity:0.989" fill="#000000" d="M 447.5,511.5 C 426.167,511.5 404.833,511.5 383.5,511.5C 383.667,476.165 383.5,440.832 383,405.5C 381.444,381.613 368.944,367.447 345.5,363C 285.5,362.333 225.5,362.333 165.5,363C 142.056,367.447 129.556,381.613 128,405.5C 127.5,440.832 127.333,476.165 127.5,511.5C 106.167,511.5 84.8333,511.5 63.5,511.5C 63.3333,471.165 63.5,430.832 64,390.5C 72.7719,342.729 100.605,312.562 147.5,300C 152.47,299.114 157.47,298.448 162.5,298C 224.5,297.333 286.5,297.333 348.5,298C 396.778,303.557 428.612,329.391 444,375.5C 445.256,380.448 446.256,385.448 447,390.5C 447.5,430.832 447.667,471.165 447.5,511.5 Z"/></g>
</svg>
