<?xml version="1.0" encoding="UTF-8"?>
<!DOCTYPE svg PUBLIC "-//W3C//DTD SVG 1.1//EN" "http://www.w3.org/Graphics/SVG/1.1/DTD/svg11.dtd">
<svg xmlns="http://www.w3.org/2000/svg" version="1.1" width="512px" height="512px" style="shape-rendering:geometricPrecision; text-rendering:geometricPrecision; image-rendering:optimizeQuality; fill-rule:evenodd; clip-rule:evenodd" xmlns:xlink="http://www.w3.org/1999/xlink">
<g><path style="opacity:0.982" fill="#000000" d="M 188.5,-0.5 C 211.5,-0.5 234.5,-0.5 257.5,-0.5C 327.448,12.299 380.948,48.9656 418,109.5C 451.406,171.125 456.739,235.125 434,301.5C 426.288,321.43 416.122,339.93 403.5,357C 439.368,393.035 475.368,428.868 511.5,464.5C 511.5,465.5 511.5,466.5 511.5,467.5C 496.5,481.833 481.833,496.5 467.5,511.5C 466.5,511.5 465.5,511.5 464.5,511.5C 428.868,475.368 393.035,439.368 357,403.5C 300.744,443.952 238.577,456.786 170.5,442C 99.7324,423.561 48.5658,381.395 17,315.5C 8.97346,296.704 3.14013,277.37 -0.5,257.5C -0.5,234.5 -0.5,211.5 -0.5,188.5C 16.7962,99.3652 68.1296,39.1985 153.5,8C 165.18,4.66243 176.847,1.82909 188.5,-0.5 Z M 222.5,63.5 C 291.095,66.6894 340.261,99.0227 370,160.5C 393.982,223.909 383.982,281.242 340,332.5C 298.975,373.397 249.808,389.23 192.5,380C 122.806,362.64 80.6394,318.806 66,248.5C 58.4218,182.514 81.2552,130.014 134.5,91C 161.326,73.4659 190.66,64.2993 222.5,63.5 Z"/></g>
</svg>
